<svg width="52" height="38" viewBox="0 0 52 38" fill="none" xmlns="http://www.w3.org/2000/svg">
<path d="M31 36.1667C30.3333 35.5 30.0133 34.6944 30.04 33.75C30.0667 32.8056 30.4145 32 31.0833 31.3333L40.5 21.9167H3.33334C2.3889 21.9167 1.59668 21.5967 0.956679 20.9567C0.316679 20.3167 -0.00221069 19.5256 1.1534e-05 18.5833C1.1534e-05 17.6389 0.320012 16.8467 0.960012 16.2067C1.60001 15.5667 2.39112 15.2478 3.33334 15.25H40.5L31 5.75C30.3333 5.08333 30 4.29111 30 3.37333C30 2.45555 30.3333 1.66444 31 0.999999C31.6667 0.333332 32.4589 0 33.3767 0C34.2945 0 35.0856 0.333332 35.75 0.999999L51 16.25C51.3333 16.5833 51.57 16.9444 51.71 17.3333C51.85 17.7222 51.9189 18.1389 51.9167 18.5833C51.9167 19.0278 51.8467 19.4444 51.7067 19.8333C51.5667 20.2222 51.3311 20.5833 51 20.9167L35.6667 36.25C35.0556 36.8611 34.2922 37.1667 33.3767 37.1667C32.4611 37.1667 31.6689 36.8333 31 36.1667Z" fill="white"/>
</svg>
