<svg width="39" height="39" viewBox="0 0 39 39" fill="none" xmlns="http://www.w3.org/2000/svg">
<rect width="39" height="39" rx="19.5" fill="#F59221"/>
<path d="M16.6667 16.0001H16.68M23.3334 16.0001H23.3467M9.33337 32.0001V14.6667C9.33337 13.6059 9.7548 12.5885 10.5049 11.8383C11.2551 11.0882 12.2725 10.6667 13.3334 10.6667H26.6667C27.7276 10.6667 28.745 11.0882 29.4951 11.8383C30.2453 12.5885 30.6667 13.6059 30.6667 14.6667V22.6667C30.6667 23.7276 30.2453 24.745 29.4951 25.4952C28.745 26.2453 27.7276 26.6667 26.6667 26.6667H14.6667L9.33337 32.0001Z" stroke="white" stroke-width="2" stroke-linecap="round" stroke-linejoin="round"/>
<path d="M16.6667 21.3335C17.1013 21.777 17.6199 22.1293 18.1923 22.3698C18.7646 22.6103 19.3792 22.7342 20.0001 22.7342C20.6209 22.7342 21.2355 22.6103 21.8079 22.3698C22.3803 22.1293 22.8989 21.777 23.3334 21.3335" stroke="white" stroke-width="2" stroke-linecap="round" stroke-linejoin="round"/>
</svg>
