<svg width="33" height="30" viewBox="0 0 33 30" fill="none" xmlns="http://www.w3.org/2000/svg">
<path d="M2.625 29.2421C2 29.5032 1.40625 29.4458 0.84375 29.0698C0.28125 28.6951 0 28.1487 0 27.4306V20.1358C0 19.6789 0.125 19.2709 0.375 18.9119C0.625 18.5529 0.96875 18.3244 1.40625 18.2265L15 14.7015L1.40625 11.1765C0.96875 11.0786 0.625 10.8501 0.375 10.4911C0.125 10.132 0 9.72404 0 9.2671V1.97231C0 1.25425 0.28125 0.707224 0.84375 0.331224C1.40625 -0.0434703 2 -0.100263 2.625 0.160848L31.5 12.89C32.2812 13.249 32.6719 13.8529 32.6719 14.7015C32.6719 15.5501 32.2812 16.1539 31.5 16.5129L2.625 29.2421Z" fill="white"/>
</svg>
